<svg t="1649509385045" class="icon" viewBox="0 0 1024 1024" version="1.1" xmlns="http://www.w3.org/2000/svg" p-id="6729" width="128" height="128"><path d="M537.984 139.52l277.333333 123.178667A64 64 0 0 1 853.333333 321.194667v381.610666a64 64 0 0 1-38.016 58.496l-277.333333 123.157334a64 64 0 0 1-51.968 0l-277.333333-123.157334A64 64 0 0 1 170.666667 702.805333V321.194667a64 64 0 0 1 38.016-58.496l277.333333-123.157334a64 64 0 0 1 51.968 0zM234.666667 381.44v321.365333l250.666666 111.317334V488.853333L234.666667 381.44z m554.666666 2.304l-240 102.826667V809.386667L789.333333 702.805333V383.744zM512 198.037333l-266.581333 118.378667 269.290666 115.413333 266.517334-114.24L512 198.037333z" p-id="6730" fill="#ffffff"></path></svg>